<svg id="Layer_1" data-name="Layer 1" xmlns="http://www.w3.org/2000/svg" viewBox="0 0 283.46 65.2"><defs><style>.cls-1{fill:#44831e;}</style></defs><title>Borger.dk_pos_rgb</title><path class="cls-1" d="M74.17,35.59c0,10.09-8.06,16.88-17.7,16.88S38.64,45.68,38.64,35.59,46.7,18.71,56.47,18.71,74.17,25.56,74.17,35.59Zm-9.77,0a8,8,0,1,0-16,0,8,8,0,1,0,16,0Z"/><path class="cls-1" d="M101.64,19.47l-.55,9.94s-12.71-2-12.71,6.58V51.52H78.2V19.66H88.38v5.52a12.5,12.5,0,0,1,11-6A8.74,8.74,0,0,1,101.64,19.47Z"/><path class="cls-1" d="M200.43,19.47l-.56,9.94s-12.7-2-12.7,6.58V51.52H177V19.66h10.18v5.52a12.47,12.47,0,0,1,11-6A8.79,8.79,0,0,1,200.43,19.47Z"/><path class="cls-1" d="M205.48,46.12a5.81,5.81,0,0,1-11.61,0,5.81,5.81,0,0,1,11.61,0Z"/><path class="cls-1" d="M138.23,19.66H124.4a17.49,17.49,0,0,0-5.84-.95c-8.63,0-14.85,5.52-14.85,13.2a12,12,0,0,0,1.65,6.22c-2.47,1.58-5,4.95-5,8.37,0,7.63,7.24,10.52,13.19,10.52h7.24c4.53,0,6.58,1.54,6.58,5.65V65.2h.11L136,60.78c0-6.47-3-12.27-12.52-12.27h-9.93c-2.76,0-4.21-.83-4.21-2.76a3.44,3.44,0,0,1,1.42-2.67,17.41,17.41,0,0,0,7.8,1.77c8.37,0,14.78-5.33,14.78-12.94a15.22,15.22,0,0,0-.63-4.19h5.52ZM118.56,37.15a5.38,5.38,0,1,1,5.76-5.37A5.49,5.49,0,0,1,118.56,37.15Z"/><path class="cls-1" d="M19.93,18.7A14.37,14.37,0,0,0,10,22.19V.05H9.59L0,4.29V51.51H10V49a14.37,14.37,0,0,0,9.9,3.49c8.44,0,15.54-6.79,15.54-16.88S28.37,18.7,19.93,18.7ZM17.84,44a8.06,8.06,0,0,1-8-8.41,8.1,8.1,0,0,1,8-8.41c4.53,0,7.83,3.43,7.83,8.41S22.37,44,17.84,44Z"/><path class="cls-1" d="M243.92,0,234.1,4.3V22.2a14.37,14.37,0,0,0-9.9-3.49c-8.44,0-15.54,6.85-15.54,16.88s7.1,16.88,15.54,16.88A14.37,14.37,0,0,0,234.1,49v2.54h10.15V0ZM226.29,44c-4.53,0-7.83-3.36-7.83-8.41s3.3-8.42,7.83-8.42a8.1,8.1,0,0,1,8,8.42A8.06,8.06,0,0,1,226.29,44Z"/><polygon class="cls-1" points="271.24 33.68 283.45 19.66 271.16 19.66 263.56 28.67 260.56 28.67 260.56 0 260.11 0 250.4 4.25 250.4 51.52 260.56 51.52 260.56 37.87 263.56 37.87 271.38 51.52 283.46 51.52 271.24 33.68"/><path class="cls-1" d="M172.48,35.59c-.19-10.41-7.42-16.88-16.43-16.88a16.48,16.48,0,0,0-16.88,16.88A16.43,16.43,0,0,0,156,52.47c6.3,0,11.46-2.42,14.51-7.41l-7.73-4.39c-1.71,3.1-4.44,3.68-6.78,3.68-3.43,0-6-2.35-6.86-6.16h23.35ZM149,32.1a7.46,7.46,0,0,1,7.06-5.41,6.82,6.82,0,0,1,6.73,5.41Z"/></svg>